<svg xmlns="http://www.w3.org/2000/svg" xmlns:xlink="http://www.w3.org/1999/xlink" viewBox="0,0,256,256" width="80px" height="80px"><g fill="#2efe81" fill-rule="nonzero" stroke="none" stroke-width="1" stroke-linecap="butt" stroke-linejoin="miter" stroke-miterlimit="10" stroke-dasharray="" stroke-dashoffset="0" font-family="none" font-weight="none" font-size="none" text-anchor="none" style="mix-blend-mode: normal"><g transform="scale(10.66667,10.66667)"><path d="M18,6h-1c-0.552,0 -1,-0.448 -1,-1v-1c0,-0.552 0.448,-1 1,-1h1c0.552,0 1,0.448 1,1v1c0,0.552 -0.448,1 -1,1zM19,16.702c0,0.952 -0.213,3.983 -2.741,5.135c-0.25,0.114 -0.542,0.095 -0.792,-0.018l-1.541,-0.698c-0.369,-0.167 -0.387,-0.667 -0.046,-0.884c1.46,-0.927 2.12,-2.253 2.12,-3.535v-7.702c0,-0.552 0.448,-1 1,-1h1c0.552,0 1,0.448 1,1zM11,4v4.159c-0.347,-0.141 -1.096,-0.159 -1.465,-0.159c-2.776,0 -5.345,1.306 -5.345,5c0,4.42 3.48,5 5.81,5c0.703,0 2.085,-0.053 3.143,-0.207c0.493,-0.072 0.857,-0.493 0.857,-0.991v-12.802c0,-0.552 -0.448,-1 -1,-1h-1c-0.552,0 -1,0.448 -1,1zM9.97,15.533c-1.31,0 -2.58,-0.413 -2.58,-2.533c0,-2.12 1.27,-2.45 2.58,-2.45c0.32,0 0.68,0.06 1.03,0.14v4.703c-0.35,0.08 -0.71,0.14 -1.03,0.14z"></path></g></g></svg>